<svg width="200" height="200" viewBox="0 0 200 200" fill="none" xmlns="http://www.w3.org/2000/svg">
<g clip-path="url(#clip0_22_49)">
<path d="M200 -0.00598145H0V200.006H200V-0.00598145Z" fill="#BF8B2E"/>
<path d="M19.964 26.276H20.026V57.146H26.806V16.818H21.388L15.146 24.136V31.212H15.204L19.964 26.276Z" fill="white"/>
<path d="M30.848 25.148V30.022H37.032V24.966C37.032 22.53 38.232 21.816 39.65 21.816C40.96 21.816 42.088 22.35 42.088 24.85V28.178C42.088 31.512 41.792 32.818 39.588 35.138L35.788 39.184C32.102 43.11 30.73 45.726 30.73 49.712V57.148H48.33V51.614H37.21V49.712C37.21 46.558 38.34 45.37 40.064 43.526L44.4 38.946C47.91 35.2 48.684 32.818 48.684 28.774V24.85C48.684 19.078 45.884 16.344 39.82 16.344C33.872 16.344 30.84 19.496 30.84 25.144" fill="white"/>
<path d="M155.71 107.136C147.554 100.694 137.774 100 133.948 100C131.93 100 130.062 100.18 128.694 100.506L128.158 100.63C122.992 101.85 114.346 103.892 104.28 116.384L103.984 116.75C103.823 116.97 103.735 117.234 103.732 117.506C103.733 117.738 103.794 117.967 103.91 118.168L104.138 118.542C105.799 121.322 107.179 123.736 108.278 125.784C108.375 125.973 108.517 126.137 108.691 126.26C108.864 126.383 109.065 126.463 109.276 126.493C109.487 126.522 109.702 126.501 109.902 126.43C110.103 126.359 110.284 126.241 110.43 126.086C110.5 125.994 110.572 125.896 110.63 125.822C119.314 113.8 126.126 112.2 130.634 111.134L131.2 111C132.109 110.825 133.034 110.747 133.96 110.766C136.056 110.766 143.342 111.114 149.026 115.602C154.084 119.602 156.648 125.97 156.648 134.552C156.648 148.936 149.69 154.552 143.848 156.72C141.564 157.563 139.147 157.988 136.712 157.976C133.006 157.957 129.349 157.125 126 155.538L125.582 155.338C120.56 153.158 113.062 148.612 105.972 134.376C91.44 105.176 79.232 102.42 71.148 100.59L70.724 100.496C70.104 100.354 68.356 100.028 65.524 100.028C60.844 100.028 51.84 100.948 44.124 107.108C38.856 111.308 32.572 119.474 32.572 134.508C32.572 143.662 34.458 149.708 39.292 156.066C40.2 157.306 48.622 168.182 64.792 168.182C67.2707 168.174 69.743 167.931 72.176 167.458C75.128 166.894 79.684 165.434 84.776 161.702L89.026 165.538C89.2709 165.744 89.5847 165.851 89.9047 165.836C90.2247 165.821 90.5273 165.686 90.752 165.458C90.956 165.242 91.066 164.955 91.058 164.658L94.346 144.402V144.166C94.3446 143.999 94.3082 143.834 94.2394 143.682C94.1705 143.53 94.0706 143.393 93.946 143.282C93.8317 143.176 93.6975 143.094 93.5513 143.04C93.4051 142.986 93.2497 142.962 93.094 142.968L73.362 148.4L72.986 148.462C72.7438 148.512 72.5242 148.639 72.36 148.824C72.2507 148.943 72.1662 149.082 72.1112 149.234C72.0562 149.386 72.0319 149.547 72.0397 149.709C72.0476 149.87 72.0873 150.028 72.1567 150.174C72.2261 150.32 72.3238 150.45 72.444 150.558L76.53 154.254C74.382 155.572 72.234 156.454 70.146 156.854C68.422 157.189 66.6702 157.36 64.914 157.366C53.74 157.366 48.242 150.032 48.016 149.722L47.906 149.57C44.506 145.104 43.358 141.302 43.358 134.502C43.358 125.89 45.878 119.502 50.848 115.542C56.378 111.13 63.494 110.786 65.546 110.786C66.4849 110.769 67.423 110.847 68.346 111.02L68.782 111.118C75.234 112.58 84.07 114.58 96.322 139.188C102.792 152.188 110.906 160.676 121.104 165.156C122.29 165.756 128.616 168.778 136.724 168.778C140.444 168.79 144.135 168.135 147.624 166.844C153.58 164.622 167.44 157.024 167.44 134.56C167.434 119.544 161.058 111.36 155.71 107.136Z" fill="white"/>
<path d="M66.5681 25.58V33.078H63.8201V16.73H67.8201C70.6001 16.73 71.6001 18.104 71.6001 20.4V22.498C71.6001 24.258 70.9721 25.298 69.4001 25.656L72.0281 33.082H69.1481L66.5681 25.58ZM66.5681 18.98V24.06H67.4841C68.4261 24.06 68.8361 23.578 68.8361 22.71V20.31C68.8361 19.418 68.4261 18.984 67.4841 18.984L66.5681 18.98Z" fill="white"/>
<path d="M73.0781 16.73H79.6361V18.974H75.8361V23.65H78.5601V25.87H75.8281V30.836H79.6281V33.078H73.0781V16.73Z" fill="white"/>
<path d="M80.938 29.558V27.358H83.494V29.6C83.494 30.516 83.894 31.048 84.844 31.048C85.712 31.048 86.098 30.468 86.098 29.6V28.98C86.098 28.04 85.712 27.46 84.868 26.664L83.254 25.05C81.686 23.506 80.962 22.566 80.962 20.684V20.13C80.962 18.104 82.144 16.53 84.82 16.53C87.57 16.53 88.654 17.88 88.654 20.242V21.57H86.146V20.146C86.146 19.206 85.712 18.746 84.844 18.746C84.074 18.746 83.542 19.18 83.542 20.096V20.434C83.542 21.35 84.048 21.88 84.844 22.652L86.6 24.4C88.096 25.92 88.82 26.836 88.82 28.644V29.444C88.82 31.686 87.62 33.278 84.82 33.278C82.02 33.278 80.938 31.704 80.938 29.558Z" fill="white"/>
<path d="M90.2 16.73H94.274C97.046 16.73 98.0599 18.104 98.0599 20.396V23.844C98.0599 26.134 97.046 27.532 94.274 27.532H92.9479V33.078H90.2V16.73ZM92.9479 18.974V25.41H93.9599C94.8999 25.41 95.3099 24.952 95.3099 24.06V20.3C95.3099 19.408 94.8999 18.974 93.9599 18.974H92.9479Z" fill="white"/>
<path d="M99.4561 28.858V20.95C99.4561 18.394 100.71 16.538 103.602 16.538C106.494 16.538 107.774 18.394 107.774 20.95V28.858C107.774 31.39 106.52 33.272 103.602 33.272C100.684 33.272 99.4561 31.4 99.4561 28.858ZM105.026 29.292V20.516C105.026 19.528 104.592 18.828 103.602 18.828C102.612 18.828 102.202 19.528 102.202 20.516V29.292C102.202 30.282 102.636 30.98 103.602 30.98C104.568 30.98 105.026 30.282 105.026 29.292Z" fill="white"/>
<path d="M111.632 22.8V33.072H109.318V16.73H112.018L114.984 26.11V16.73H117.274V33.078H114.862L111.632 22.8Z" fill="white"/>
<path d="M118.696 29.558V27.358H121.252V29.6C121.252 30.516 121.652 31.048 122.602 31.048C123.47 31.048 123.856 30.468 123.856 29.6V28.98C123.856 28.04 123.47 27.46 122.626 26.664L121.01 25.05C119.444 23.506 118.72 22.566 118.72 20.684V20.13C118.72 18.104 119.902 16.53 122.578 16.53C125.326 16.53 126.412 17.88 126.412 20.242V21.57H123.904V20.146C123.904 19.206 123.47 18.746 122.602 18.746C121.83 18.746 121.3 19.18 121.3 20.096V20.434C121.3 21.35 121.806 21.88 122.602 22.652L124.362 24.388C125.858 25.908 126.58 26.824 126.58 28.632V29.432C126.58 31.674 125.38 33.266 122.58 33.266C119.78 33.266 118.696 31.704 118.696 29.558Z" fill="white"/>
<path d="M127.954 16.73H130.704V33.078H127.954V16.73Z" fill="white"/>
<path d="M132.27 16.73H136.25C138.998 16.73 139.914 18.008 139.914 20.33V21.994C139.914 23.368 139.408 24.236 138.274 24.594C139.648 24.906 140.324 25.822 140.324 27.318V29.488C140.324 31.802 139.288 33.088 136.538 33.088H132.27V16.73ZM135.02 23.626H135.984C136.876 23.626 137.286 23.168 137.286 22.3V20.3C137.286 19.408 136.886 18.974 135.96 18.974H135.02V23.626ZM135.02 25.724V30.836H136.22C137.138 30.836 137.572 30.378 137.572 29.51V27.05C137.572 26.182 137.172 25.724 136.196 25.724H135.02Z" fill="white"/>
<path d="M141.674 16.73H144.422V30.836H147.702V33.078H141.674V16.73Z" fill="white"/>
<path d="M148.932 16.73H155.49V18.974H151.68V23.65H154.4V25.87H151.68V30.836H155.49V33.078H148.932V16.73Z" fill="white"/>
<path d="M63.8201 52.862V44.954C63.8201 42.398 65.0201 40.542 67.9181 40.542C70.9561 40.542 71.8001 42.23 71.8001 44.64V46.57H69.2941V44.424C69.2941 43.41 68.9561 42.824 67.9661 42.824C66.9761 42.824 66.5661 43.524 66.5661 44.512V53.288C66.5661 54.276 66.9761 54.976 67.9661 54.976C68.9561 54.976 69.2941 54.35 69.2941 53.376V50.378H71.8001V53.2C71.8001 55.538 70.8361 57.274 67.9181 57.274C65.0001 57.274 63.8201 55.4 63.8201 52.862Z" fill="white"/>
<path d="M73.5361 52.862V44.954C73.5361 42.398 74.7901 40.542 77.6841 40.542C80.5781 40.542 81.8561 42.398 81.8561 44.954V52.862C81.8561 55.394 80.6021 57.274 77.6841 57.274C74.7661 57.274 73.5361 55.4 73.5361 52.862ZM79.1061 53.296V44.52C79.1061 43.532 78.6721 42.832 77.6841 42.832C76.6961 42.832 76.2841 43.532 76.2841 44.52V53.296C76.2841 54.284 76.7181 54.984 77.6841 54.984C78.6501 54.984 79.1061 54.284 79.1061 53.296Z" fill="white"/>
<path d="M85.9781 46.81V57.082H83.6621V40.734H86.3641L89.3301 50.114V40.734H91.6201V57.082H89.2001L85.9781 46.81Z" fill="white"/>
<path d="M93.2842 53.562V51.362H95.8402V53.604C95.8402 54.52 96.2402 55.05 97.1902 55.05C98.0582 55.05 98.4442 54.472 98.4442 53.604V52.976C98.4442 52.036 98.0582 51.458 97.2142 50.662L95.6002 49.052C94.0322 47.51 93.3102 46.57 93.3102 44.688V44.134C93.3102 42.108 94.4902 40.534 97.1682 40.534C99.9162 40.534 101.002 41.884 101.002 44.246V45.572H98.4922V44.15C98.4922 43.21 98.0582 42.75 97.1902 42.75C96.4182 42.75 95.8882 43.184 95.8882 44.1V44.438C95.8882 45.354 96.3942 45.884 97.1902 46.656L98.9502 48.392C100.444 49.91 101.168 50.826 101.168 52.636V53.436C101.168 55.678 99.9682 57.268 97.1682 57.268C94.3682 57.268 93.2842 55.708 93.2842 53.562Z" fill="white"/>
<path d="M110.836 40.734V53.104C110.836 55.636 109.752 57.274 106.954 57.274C104.06 57.274 102.856 55.636 102.856 53.104V40.734H105.6V53.368C105.6 54.334 105.986 54.984 106.95 54.984C107.914 54.984 108.3 54.334 108.3 53.368V40.734H110.836Z" fill="white"/>
<path d="M120.216 46.472H120.144L118.286 57.082H117L114.96 46.472H114.91V57.082H112.644V40.734H115.844L117.628 49.944H117.652L119.252 40.734H122.726V57.082H120.216V46.472Z" fill="white"/>
<path d="M124.532 40.734H128.6C131.372 40.734 132.386 42.108 132.386 44.4V47.848C132.386 50.138 131.372 51.536 128.6 51.536H127.28V57.082H124.532V40.734ZM127.28 42.976V49.414H128.292C129.234 49.414 129.642 48.956 129.642 48.064V44.302C129.642 43.41 129.242 42.976 128.292 42.976H127.28Z" fill="white"/>
<path d="M133.284 40.734H140.6V42.976H138.322V57.082H135.55V42.976H133.284V40.734Z" fill="white"/>
<path d="M141.892 40.734H144.64V57.082H141.892V40.734Z" fill="white"/>
<path d="M146.23 52.862V44.954C146.23 42.398 147.484 40.542 150.378 40.542C153.272 40.542 154.55 42.398 154.55 44.954V52.862C154.55 55.394 153.296 57.274 150.378 57.274C147.46 57.274 146.23 55.4 146.23 52.862ZM151.8 53.296V44.52C151.8 43.532 151.366 42.832 150.378 42.832C149.39 42.832 148.978 43.532 148.978 44.52V53.296C148.978 54.284 149.412 54.984 150.378 54.984C151.344 54.984 151.8 54.284 151.8 53.296Z" fill="white"/>
<path d="M158.456 46.81V57.082H156.14V40.734H158.84L161.8 50.114V40.734H164.092V57.082H161.686L158.456 46.81Z" fill="white"/>
<path d="M63.386 81.088L66.472 64.74H69.6L72.712 81.088H69.896L69.4 78.098H66.472L66 81.088H63.386ZM66.834 75.904H69.034L67.948 69.344H67.924L66.834 75.904Z" fill="white"/>
<path d="M76.2359 70.816V81.088H73.9219V64.74H76.6219L79.5879 74.118V64.74H81.8799V81.088H79.4679L76.2359 70.816Z" fill="white"/>
<path d="M91.7401 69.128V76.698C91.7401 79.206 90.7041 81.088 87.7621 81.088H83.5181V64.74H87.7621C90.7041 64.74 91.7401 66.6 91.7401 69.128ZM87.4241 78.844C88.5581 78.844 88.9921 78.17 88.9921 77.18V68.622C88.9921 67.656 88.5581 66.982 87.4241 66.982H86.2661V78.844H87.4241Z" fill="white"/>
<path d="M95.9839 64.74H100.058C102.832 64.74 103.844 66.114 103.844 68.404V71.852C103.844 74.142 102.832 75.542 100.058 75.542H98.7319V81.088H95.9839V64.74ZM98.7319 66.982V73.42H99.7439C100.686 73.42 101.096 72.962 101.096 72.07V68.308C101.096 67.416 100.686 66.982 99.7439 66.982H98.7319Z" fill="white"/>
<path d="M108.088 73.588V81.088H105.338V64.74H109.338C112.11 64.74 113.122 66.114 113.122 68.404V70.502C113.122 72.262 112.496 73.302 110.922 73.66L113.55 81.088H110.668L108.088 73.588ZM108.088 66.988V72.076H109C109.94 72.076 110.35 71.594 110.35 70.724V68.324C110.35 67.432 109.95 66.998 109 66.998L108.088 66.988Z" fill="white"/>
<path d="M114.694 76.868V68.958C114.694 66.402 115.948 64.546 118.84 64.546C121.732 64.546 123.012 66.402 123.012 68.958V76.868C123.012 79.4 121.758 81.28 118.84 81.28C115.922 81.28 114.694 79.4 114.694 76.868ZM120.264 77.302V68.524C120.264 67.536 119.83 66.836 118.84 66.836C117.85 66.836 117.44 67.536 117.44 68.524V77.302C117.44 78.29 117.874 78.99 118.84 78.99C119.806 78.99 120.264 78.29 120.264 77.302Z" fill="white"/>
<path d="M132.874 69.128V76.698C132.874 79.206 131.836 81.088 128.896 81.088H124.652V64.74H128.896C131.836 64.74 132.874 66.6 132.874 69.128ZM128.558 78.844C129.692 78.844 130.124 78.17 130.124 77.18V68.622C130.124 67.656 129.692 66.982 128.558 66.982H127.4V78.844H128.558Z" fill="white"/>
<path d="M142.494 64.74V77.108C142.494 79.64 141.408 81.28 138.612 81.28C135.718 81.28 134.512 79.64 134.512 77.108V64.74H137.262V77.374C137.262 78.338 137.648 78.99 138.612 78.99C139.576 78.99 139.962 78.338 139.962 77.374V64.74H142.494Z" fill="white"/>
<path d="M144.134 76.868V68.958C144.134 66.402 145.334 64.546 148.232 64.546C151.27 64.546 152.114 66.234 152.114 68.646V70.574H149.6V68.428C149.6 67.416 149.264 66.828 148.274 66.828C147.284 66.828 146.874 67.528 146.874 68.516V77.294C146.874 78.282 147.284 78.982 148.274 78.982C149.264 78.982 149.6 78.354 149.6 77.382V74.384H152.108V77.2C152.108 79.538 151.144 81.274 148.226 81.274C145.308 81.274 144.134 79.4 144.134 76.868Z" fill="white"/>
<path d="M153.368 64.74H160.674V66.982H158.4V81.088H155.634V66.982H153.368V64.74Z" fill="white"/>
<path d="M161.976 64.74H164.724V81.088H161.976V64.74Z" fill="white"/>
<path d="M166.316 76.868V68.958C166.316 66.402 167.568 64.546 170.462 64.546C173.356 64.546 174.634 66.402 174.634 68.958V76.868C174.634 79.4 173.38 81.28 170.462 81.28C167.544 81.28 166.316 79.4 166.316 76.868ZM171.884 77.302V68.524C171.884 67.536 171.45 66.836 170.462 66.836C169.474 66.836 169.062 67.536 169.062 68.524V77.302C169.062 78.29 169.496 78.99 170.462 78.99C171.428 78.99 171.884 78.29 171.884 77.302Z" fill="white"/>
<path d="M178.54 70.816V81.088H176.224V64.74H178.926L181.892 74.118V64.74H184.182V81.088H181.77L178.54 70.816Z" fill="white"/>
</g>
<defs>
<clipPath id="clip0_22_49">
<rect width="200" height="200" fill="white"/>
</clipPath>
</defs>
</svg>
