<svg width="200" height="200" viewBox="0 0 200 200" fill="none" xmlns="http://www.w3.org/2000/svg">
<g clip-path="url(#clip0_22_114)">
<path d="M200 0H0V200H200V0Z" fill="#3F7E44"/>
<path d="M25.2441 16.776V57.084H18.4661V26.23H18.4061L13.6521 31.164H13.5901V24.088L19.8321 16.776H25.2441Z" fill="white"/>
<path d="M47.5999 25.518V29.024C47.5999 32.41 45.7579 34.67 42.9639 35.564C46.3519 36.336 47.9639 38.714 47.9639 42.4V48.346C47.9639 53.932 44.9919 57.56 38.1539 57.56C31.2559 57.56 28.8159 53.636 28.8159 47.512V42.222H34.9999V48C34.9999 50.378 35.8299 51.92 38.1519 51.92C40.2299 51.92 41.1799 50.436 41.1799 48.294V41.628C41.1799 39.486 40.2299 38.358 37.8539 38.358H34.9999V33.186H37.5579C39.7579 33.186 41.1799 32.054 41.1799 29.916V25.576C41.1799 23.376 40.4099 21.95 38.2699 21.95C36.1299 21.95 35.3579 23.376 35.3579 25.872V29.974H29.1659V26.4C29.1659 20.454 31.6039 16.292 38.6199 16.292C44.8639 16.292 47.5979 19.802 47.5979 25.51" fill="white"/>
<path d="M173.418 125.2C168.148 117.818 144.312 88.31 100 88.31C55.688 88.31 31.864 117.818 26.586 125.2C26.362 125.516 26.168 125.8 26.012 126.022C26.168 126.26 26.362 126.532 26.586 126.852C31.864 134.246 55.692 163.756 100 163.756C144.308 163.756 168.148 134.246 173.418 126.86C173.648 126.54 173.838 126.26 173.988 126.03C173.839 125.798 173.649 125.524 173.418 125.208M75.29 106.968C75.69 106.382 77.016 104.71 77.176 104.498C77.518 104.058 78.196 103.968 78.67 103.884C79.144 103.8 79.768 104.058 79.844 104.412C79.92 104.766 79.662 106.138 79.43 106.374C78.78 107.048 77.088 108 76.156 107.85C75.434 107.74 75.156 107.182 75.29 106.968ZM73.706 110.116C73.776 110.032 73.84 109.964 73.866 109.93C74.424 109.294 75.534 109.158 76.3 109.038C77.066 108.918 78.1 109.294 78.216 109.804C78.332 110.314 76.29 111.244 75.914 111.604C74.848 112.586 73.18 114.586 72.204 114.804C71.936 114.872 71.6526 114.843 71.404 114.722C72.0401 113.127 72.8095 111.588 73.704 110.122M90.286 144.138C89.686 146.498 88.986 147.348 88.39 148.092C87.794 148.836 85.59 149.806 84.19 149.702C82.79 149.598 82.59 145.852 82.59 143.924C82.59 143.26 81.648 145.232 81.156 141.222C80.842 138.656 79.194 141.49 79.078 139.778C78.962 138.066 78.138 138.41 77.278 137.342C76.418 136.274 75.342 137.446 74.138 137.986C72.934 138.526 73.434 138.798 71.738 138.262C71.694 138.248 71.672 138.236 71.63 138.22C70.0165 134.418 69.1854 130.33 69.186 126.2C69.186 125.158 69.242 124.132 69.34 123.12C69.3941 123.018 69.4577 122.922 69.53 122.832C71.162 120.9 71.13 120.448 71.13 120.448L72.93 119.824C72.93 119.824 75.814 120.268 77.986 121.086C79.776 121.756 82.586 123.274 84.232 122.606C85.418 122.118 86.344 121.47 86.232 120.484C86.1 119.246 85.124 118.952 83.944 119.786C83.51 120.094 82.582 117.92 81.854 118.032C81.126 118.144 82.754 120.584 82.138 120.688C81.522 120.792 80.276 118.14 80.064 117.71C79.852 117.28 78.894 116.218 78.032 117.03C76.212 118.76 73.256 118.654 72.662 119.1C70.862 120.452 70.378 118.654 70.418 117.56C70.49 117.31 70.564 117.058 70.644 116.81C71.234 116.16 73.352 115.944 74.08 116.428C74.88 116.962 75.452 116.292 75.764 115.968C76.076 115.644 75.964 115.138 75.764 114.714C75.564 114.29 76.164 113.97 76.576 113.86C76.988 113.75 78.366 112.786 78.916 112.46C79.466 112.134 82.316 111.794 83.602 112.434C84.1086 112.702 84.6922 112.786 85.2539 112.673C85.8156 112.559 86.3208 112.255 86.684 111.812C87.3133 111.062 88.0711 110.43 88.922 109.946C89.37 109.746 87.82 108.292 86.548 109.868C85.276 111.444 84.622 111.58 84.022 111.58C83.422 111.58 79.858 110.692 79.422 109.566C78.986 108.44 80.538 107.598 81.852 106.966C83.166 106.334 86.766 106.348 87.686 106.14C89.556 105.73 91.948 104.79 93.152 105.61C94.356 106.43 88.122 107.834 90.17 108.94C90.898 109.34 94.19 107.046 95.32 106.458C97.974 105.09 92.746 104.638 93.424 101.858C94.19 98.714 87.01 99.93 83.424 100.198C87.5684 97.5467 92.2868 95.9247 97.1854 95.4674C102.084 95.0101 107.021 95.7306 111.585 97.569C116.148 99.4073 120.206 102.31 123.42 106.035C126.634 109.761 128.911 114.2 130.06 118.984C130.078 119.465 130.028 119.947 129.91 120.414C129.63 121.526 127.51 122.482 126.296 120.692C125.984 120.24 124.66 118.99 124.696 121.128C124.732 123.266 126.776 123.486 124.802 124.77C122.828 126.054 122.47 125.744 121.558 126.068C120.646 126.392 119.758 128.594 119.984 129.772C120.21 130.95 123.018 134.172 120.93 134.036C120.44 133.998 116.752 131.48 116.144 129.86C115.5 128.154 114.8 126.486 114.302 125.2C113.804 123.914 112.502 123.6 111.394 124.346C110.286 125.092 111.7 125.848 110.91 127.456C110.12 129.064 109.558 130.494 108.4 129.168C105.386 125.716 101 127.418 100.322 123.568C99.952 121.486 98.158 121.686 96.658 120.506C95.158 119.326 94.312 118.706 94.058 119.544C93.836 120.29 98.776 124.208 99.128 125.21C99.654 126.702 97.65 128.01 96.182 128.37C94.714 128.73 94.078 127.548 92.638 126.048C91.198 124.548 90.572 123.484 90.472 124.66C90.328 126.358 91.838 128.86 93.302 129.784C94.552 130.574 95.952 130.932 95.546 132.216C95.14 133.5 95.546 132.776 94.146 134.16C92.746 135.544 92.478 135.998 92.58 137.92C92.682 139.842 92.18 139.958 91.878 141.56C91.576 143.162 90.878 141.776 90.278 144.126M123.4 131.824C124.436 131.74 126 133.178 125.386 133.73C124.772 134.282 123.224 134.078 122.442 133.466C121.66 132.854 122.932 131.866 123.4 131.824ZM122.086 130.876C121.754 130.752 121.46 130.436 121.208 129.676C120.956 128.916 121.594 128.476 122.208 128.79C122.822 129.104 123.664 130.056 123.664 130.56C123.664 131.064 122.418 131.006 122.078 130.872M108.456 130.818C107.846 131.362 106.286 131.162 105.506 130.554C104.726 129.946 105.998 128.954 106.462 128.912C107.5 128.818 109.062 130.27 108.462 130.818M95.862 136.948C95.438 137.642 94.276 142.832 93.498 142.228C92.72 141.624 93.814 136.208 94.038 135.796C95.258 133.56 97.894 133.67 95.862 136.948ZM100.062 157.064C97.1263 157.065 94.2055 156.647 91.388 155.822C91.1675 155.647 91.0111 155.405 90.9435 155.132C90.8758 154.859 90.9006 154.571 91.014 154.314C91.968 151.824 94.814 150.848 97.058 150.632C102.058 150.144 108.642 153.882 109.688 153.278C110.734 152.674 112.854 149.924 115.958 150.04C118.078 150.122 118.062 150.478 118.774 150.746C113.401 154.852 106.824 157.073 100.062 157.064ZM121.832 148.08C121.498 147.993 121.174 147.873 120.864 147.722C119.178 146.864 119.38 148.234 118.552 147.922C117.724 147.61 119.486 145.692 116.998 147.322C114.51 148.952 115.188 147.07 114.108 144.322C113.028 141.574 115.352 138.436 117.308 137.722C119.99 136.752 121.654 136.554 122.908 136.244C126.616 135.318 127.4 133.118 128.072 134.456C128.2 134.706 128.322 134.946 128.434 135.17C128.734 135.805 128.894 136.498 128.902 137.2C127.341 141.29 124.929 145.001 121.826 148.088M130.282 132.506C129.454 132.28 125.988 127.488 128.728 124.336C129.184 123.818 127.808 122.292 128.184 122.262C129.684 122.146 130.48 123.076 130.874 124.416C130.904 125.016 130.928 125.604 130.928 126.216C130.927 128.333 130.711 130.443 130.282 132.516" fill="white"/>
<path d="M63.8201 29.12V21.046C63.8201 18.446 65.0501 16.542 68.0041 16.542C71.1061 16.542 71.9681 18.264 71.9681 20.726V22.696H69.4001V20.496C69.4001 19.462 69.0561 18.872 68.0461 18.872C67.0361 18.872 66.6261 19.6 66.6261 20.6V29.56C66.6261 30.56 67.0441 31.282 68.0541 31.282C69.0641 31.282 69.4081 30.642 69.4081 29.658V26.584H71.9681V29.464C71.9681 31.852 70.9841 33.624 68.0041 33.624C65.0241 33.624 63.8201 31.704 63.8201 29.12Z" fill="white"/>
<path d="M73.738 16.738H76.538V31.138H79.886V33.428H73.738V16.738Z" fill="white"/>
<path d="M81.4141 16.738H84.2141V33.428H81.4141V16.738Z" fill="white"/>
<path d="M94.042 22.6H93.968L92.074 33.43H90.768L88.676 22.6H88.626V33.43H86.314V16.738H89.586L91.408 26.138H91.434L93.058 16.738H96.6V33.428H94.042V22.6Z" fill="white"/>
<path d="M98 33.428L101.152 16.738H104.352L107.528 33.428H104.648L104.13 30.374H101.154L100.66 33.428H98ZM101.52 28.136H103.762L102.654 21.44H102.628L101.52 28.136Z" fill="white"/>
<path d="M107.154 16.738H114.614V19.028H112.3V33.428H109.468V19.028H107.154V16.738Z" fill="white"/>
<path d="M116.162 16.738H122.858V19.028H118.968V23.8H121.75V26.064H118.968V31.134H122.858V33.424H116.162V16.738Z" fill="white"/>
<path d="M63.3301 57.084L66.4821 40.4H69.6821L72.8581 57.088H69.9781L69.4601 54.036H66.4821L65.9881 57.088L63.3301 57.084ZM66.8501 51.8H69.0921L67.9841 45.106H67.9581L66.8501 51.8Z" fill="white"/>
<path d="M73.6641 52.778V44.704C73.6641 42.094 74.8961 40.2 77.8501 40.2C80.9501 40.2 81.8121 41.922 81.8121 44.384V46.352H79.2521V44.162C79.2521 43.128 78.9081 42.538 77.8981 42.538C76.8881 42.538 76.4701 43.252 76.4701 44.26V53.22C76.4701 54.22 76.8901 54.944 77.8981 54.944C78.9061 54.944 79.2521 54.304 79.2521 53.318V50.242H81.8121V53.122C81.8121 55.51 80.8281 57.282 77.8501 57.282C74.8721 57.282 73.6641 55.362 73.6641 52.778Z" fill="white"/>
<path d="M82.8 40.4H90.26V42.69H87.938V57.09H85.106V42.69H82.8V40.4Z" fill="white"/>
<path d="M91.8 40.4H94.6V57.088H91.8V40.4Z" fill="white"/>
<path d="M96.4741 52.778V44.704C96.4741 42.094 97.7561 40.2 100.708 40.2C103.66 40.2 104.968 42.094 104.968 44.704V52.778C104.968 55.362 103.686 57.282 100.708 57.282C97.7301 57.282 96.4741 55.362 96.4741 52.778ZM102.162 53.22V44.26C102.162 43.26 101.718 42.538 100.708 42.538C99.6981 42.538 99.2801 43.252 99.2801 44.26V53.22C99.2801 54.22 99.7241 54.944 100.708 54.944C101.692 54.944 102.162 54.23 102.162 53.22Z" fill="white"/>
<path d="M109.172 46.6V57.086H106.81V40.4H109.568L112.6 49.97V40.4H114.94V57.088H112.472L109.172 46.6Z" fill="white"/>
</g>
<defs>
<clipPath id="clip0_22_114">
<rect width="200" height="200" fill="white"/>
</clipPath>
</defs>
</svg>
