<svg width="200" height="200" viewBox="0 0 200 200" fill="none" xmlns="http://www.w3.org/2000/svg">
<g clip-path="url(#clip0_22_92)">
<path d="M200 0H0V200H200V0Z" fill="#56C02B"/>
<path d="M63.9121 16.74V33.096H69.9421V30.852H66.6621V16.74H63.9121Z" fill="white"/>
<path d="M74.186 16.74H71.438V33.094H74.186V16.74Z" fill="white"/>
<path d="M75.9939 33.096H78.7419V25.882H81.4919V23.664H78.7419V18.984H82.4279V16.74H75.9939V33.096Z" fill="white"/>
<path d="M83.8779 33.096H90.4339V30.852H86.6259V25.882H89.3519V23.664H86.6259V18.984H90.4339V16.74H83.8779V33.096Z" fill="white"/>
<path d="M14.644 24.058V31.134H14.704L19.46 26.198H19.522V57.066H26.3V16.74H20.888L14.644 24.058Z" fill="white"/>
<path d="M42.4199 29.53C39.7439 29.53 37.7819 30.48 36.7099 32.33H36.6499V22.272H48.3079V16.744H30.4659V39.464H36.6499V38.568C36.6499 36.192 37.7199 34.882 39.6219 34.882C41.7059 34.882 42.5399 36.31 42.5399 38.512V48.266C42.5399 50.404 41.7659 51.892 39.6839 51.892C37.3659 51.892 36.5359 50.346 36.5359 47.966V42.912H30.3359V47.494C30.3359 53.618 32.7739 57.542 39.6739 57.542C46.5139 57.542 49.3079 53.914 49.3079 48.324V38.45C49.3079 32.086 46.0379 29.53 42.4099 29.53" fill="white"/>
<path d="M63.8999 52.864V44.986C63.8999 42.438 65.1499 40.586 68.0339 40.586C70.9179 40.586 72.1899 42.436 72.1899 44.986V52.864C72.1899 55.388 70.9419 57.264 68.0339 57.264C65.1259 57.264 63.8999 55.39 63.8999 52.864ZM69.4499 53.296V44.552C69.4499 43.566 69.0179 42.87 68.0339 42.87C67.0499 42.87 66.6339 43.566 66.6339 44.552V53.296C66.6339 54.282 67.0659 54.98 68.0339 54.98C69.0019 54.98 69.4499 54.282 69.4499 53.296Z" fill="white"/>
<path d="M76.0479 46.836V57.068H73.7419V40.78H76.4339L79.3879 50.124V40.78H81.6699V57.068H79.2699L76.0479 46.836Z" fill="white"/>
<path d="M87.6079 40.78H90.3459V54.834H93.6159V57.068H87.6079V40.78Z" fill="white"/>
<path d="M94.4219 57.068L97.4979 40.78H100.622L103.722 57.068H100.91L100.4 54.09H97.4979L97.0199 57.068H94.4219ZM97.8599 51.904H100.046L98.9639 45.37H98.9399L97.8599 51.904Z" fill="white"/>
<path d="M107.148 46.836V57.068H104.84V40.78H107.532L110.486 50.124V40.78H112.768V57.068H110.368L107.148 46.836Z" fill="white"/>
<path d="M122.738 45.154V52.698C122.738 55.194 121.706 57.068 118.774 57.068H114.546V40.78H118.774C121.706 40.78 122.738 42.63 122.738 45.154ZM118.438 54.834C119.564 54.834 120 54.162 120 53.178V44.648C120 43.686 119.564 43.014 118.438 43.014H117.284V54.834H118.438Z" fill="white"/>
<path d="M83.838 135.224C83.896 135.224 83.9535 135.235 84.0071 135.258C84.0607 135.28 84.1095 135.312 84.1505 135.353C84.1915 135.395 84.2241 135.443 84.2463 135.497C84.2685 135.55 84.28 135.608 84.28 135.666V150.23C84.2802 150.288 84.269 150.346 84.2468 150.399C84.2247 150.453 84.1922 150.502 84.1511 150.543C84.11 150.584 84.0612 150.617 84.0074 150.639C83.9537 150.661 83.8961 150.672 83.838 150.672H77.946C77.8877 150.672 77.83 150.661 77.7762 150.639C77.7223 150.617 77.6734 150.584 77.6321 150.543C77.5909 150.502 77.5581 150.453 77.5358 150.4C77.5134 150.346 77.502 150.288 77.502 150.23V135.666C77.502 135.608 77.5134 135.55 77.5358 135.496C77.5581 135.443 77.5909 135.394 77.6321 135.353C77.6734 135.312 77.7223 135.279 77.7762 135.257C77.83 135.235 77.8877 135.224 77.946 135.224H83.838Z" fill="white"/>
<path d="M148.56 156.924H51.4379C51.3187 156.927 51.2055 156.977 51.1225 157.062C51.0395 157.148 50.9933 157.263 50.9939 157.382V163.318C50.9955 163.435 51.043 163.546 51.1262 163.627C51.2093 163.709 51.3214 163.755 51.4379 163.754H148.56C148.676 163.754 148.788 163.708 148.871 163.626C148.954 163.545 149.003 163.434 149.006 163.318V157.382C149.005 157.263 148.959 157.148 148.875 157.063C148.792 156.977 148.679 156.928 148.56 156.924Z" fill="white"/>
<path d="M148.56 168.722H51.438C51.3223 168.724 51.2118 168.77 51.13 168.852C51.0482 168.934 51.0016 169.044 51 169.16V175.114C51.0021 175.231 51.0497 175.342 51.1327 175.424C51.2157 175.505 51.3274 175.552 51.444 175.552H148.56C148.677 175.551 148.788 175.505 148.871 175.423C148.955 175.341 149.003 175.231 149.006 175.114V169.16C149.003 169.043 148.955 168.932 148.872 168.85C148.789 168.769 148.677 168.723 148.56 168.722Z" fill="white"/>
<path d="M130.078 119.104C128.866 118.154 125.626 115.938 121.678 115.938C118.854 115.938 116.228 117.05 113.878 119.252C113.797 119.329 113.732 119.423 113.687 119.526C113.642 119.629 113.619 119.74 113.618 119.852V120.4C113.612 120.524 113.634 120.649 113.682 120.763C113.73 120.878 113.803 120.981 113.896 121.064C113.989 121.143 114.1 121.198 114.219 121.226C114.338 121.254 114.461 121.253 114.58 121.224C114.642 121.214 114.703 121.199 114.762 121.178C114.944 121.112 115.11 121.007 115.248 120.87C115.756 120.528 117.148 120.07 119.138 120.07C121.194 120.07 125.238 120.622 129.138 124.27L129.228 124.35C129.338 124.462 129.469 124.551 129.614 124.612C129.759 124.672 129.915 124.703 130.072 124.702C130.225 124.703 130.377 124.672 130.518 124.613C130.659 124.554 130.787 124.467 130.894 124.358L130.974 124.276C134.902 120.628 138.938 120.076 140.994 120.076C142.994 120.076 144.394 120.544 144.894 120.876C145.047 121.024 145.231 121.136 145.432 121.204C145.619 121.249 145.814 121.247 146 121.2C146.175 121.152 146.33 121.048 146.441 120.903C146.551 120.759 146.611 120.582 146.612 120.4V119.932C146.611 119.82 146.587 119.709 146.542 119.606C146.498 119.503 146.433 119.41 146.352 119.332C143.98 117.072 141.326 115.932 138.458 115.932C134.544 115.932 131.32 118.114 130.072 119.102" fill="white"/>
<path d="M124.052 80.4C123.949 80.4507 123.858 80.5225 123.785 80.6107C123.712 80.699 123.659 80.8016 123.628 80.912L123.53 81.236C123.493 81.3592 123.485 81.4895 123.507 81.6163C123.529 81.743 123.581 81.8628 123.658 81.966C123.727 82.0616 123.817 82.1406 123.921 82.1973C124.025 82.2541 124.14 82.2871 124.258 82.294C124.298 82.3019 124.34 82.3019 124.38 82.294C124.543 82.2917 124.704 82.2505 124.848 82.174C125.044 82.1273 125.246 82.1051 125.448 82.108C125.882 82.108 129.798 82.24 132.386 86.64L132.42 86.704C132.483 86.8251 132.571 86.9317 132.678 87.017C132.785 87.1024 132.908 87.1647 133.04 87.2C133.141 87.2297 133.245 87.2458 133.35 87.248C133.521 87.2484 133.689 87.2072 133.84 87.128L133.904 87.096C135.245 86.4061 136.728 86.039 138.236 86.024C140.69 86.024 142.292 87.024 142.666 87.442C142.744 87.5825 142.851 87.7046 142.98 87.8C143.081 87.8587 143.187 87.9095 143.296 87.952C143.343 87.964 143.391 87.9707 143.44 87.972C143.469 87.9751 143.497 87.9751 143.526 87.972C143.66 87.9713 143.793 87.9384 143.912 87.876C144.011 87.8252 144.098 87.7549 144.169 87.6693C144.24 87.5837 144.293 87.4846 144.324 87.378L144.406 87.092C144.43 87.0157 144.441 86.936 144.44 86.856C144.441 86.7088 144.402 86.5642 144.326 86.438C142.44 83.164 139.704 82.48 137.738 82.48C136.543 82.4949 135.361 82.7168 134.242 83.136C133.354 81.936 131.104 79.466 127.692 79.466C126.423 79.4831 125.176 79.7982 124.052 80.386" fill="white"/>
<path d="M103.53 95.338L103.558 95.776C103.565 95.8988 103.6 96.0183 103.659 96.126C103.719 96.2338 103.801 96.327 103.901 96.399C104 96.4709 104.115 96.5198 104.236 96.5422C104.357 96.5645 104.481 96.5596 104.6 96.528C104.648 96.5167 104.696 96.502 104.742 96.484C104.905 96.4165 105.049 96.3101 105.162 96.174C105.574 95.876 106.904 95.332 108.866 95.332C110.752 95.332 113.62 95.836 116.544 98.238L116.612 98.308C116.82 98.4884 117.086 98.5884 117.362 98.59H117.434C117.726 98.5704 117.998 98.4393 118.196 98.224L118.26 98.15C121.498 94.724 124.984 94.216 126.774 94.216C128.05 94.216 128.954 94.478 129.306 94.678C129.453 94.8019 129.626 94.8914 129.812 94.94C129.997 94.9865 130.192 94.9775 130.372 94.914C130.542 94.8538 130.688 94.7398 130.787 94.5893C130.886 94.4388 130.934 94.2599 130.922 94.08L130.9 93.7C130.893 93.5889 130.863 93.4804 130.813 93.381C130.763 93.2817 130.693 93.1936 130.608 93.122C128.676 91.496 126.59 90.678 124.396 90.678C120.98 90.678 118.254 92.694 117.126 93.678C116.094 92.974 113.586 91.526 110.646 91.526C108.062 91.526 105.746 92.6 103.756 94.71C103.679 94.7936 103.62 94.8916 103.581 94.9984C103.542 95.1052 103.525 95.2185 103.53 95.332" fill="white"/>
<path d="M54.3818 103.134C54.3813 101.751 54.6533 100.381 55.1822 99.1031C55.7112 97.8251 56.4867 96.6638 57.4646 95.6856C58.4424 94.7074 59.6034 93.9314 60.8813 93.4019C62.1591 92.8725 63.5287 92.6 64.9118 92.6C65.1398 92.6 65.3618 92.62 65.5858 92.634C65.7412 90.5427 66.3566 88.5116 67.3881 86.6858C68.4195 84.8599 69.8416 83.2845 71.5526 82.072C73.2636 80.8595 75.2212 80.04 77.2857 79.6719C79.3502 79.3039 81.4705 79.3964 83.4951 79.9429C85.5197 80.4893 87.3986 81.4763 88.9974 82.8332C90.5963 84.1901 91.8757 85.8834 92.7442 87.7922C93.6127 89.7009 94.0489 91.7779 94.0215 93.8748C93.9941 95.9717 93.5039 98.0366 92.5858 99.922C96.4183 100.768 99.8032 103 102.09 106.189C104.377 109.379 105.405 113.301 104.977 117.202C104.548 121.103 102.693 124.709 99.7682 127.326C96.8433 129.943 93.0546 131.386 89.1298 131.38C88.4878 131.38 67.8838 131.256 67.8838 131.256C65.6829 131.259 63.5292 130.618 61.6892 129.41C59.8492 128.202 58.4036 126.482 57.5311 124.461C56.6586 122.44 56.3975 120.208 56.7801 118.041C57.1627 115.873 58.1722 113.866 59.6838 112.266C58.0735 111.346 56.7349 110.017 55.8038 108.414C54.8727 106.81 54.3821 104.988 54.3818 103.134Z" fill="white"/>
</g>
<defs>
<clipPath id="clip0_22_92">
<rect width="200" height="200" fill="white"/>
</clipPath>
</defs>
</svg>
