<svg width="200" height="200" viewBox="0 0 200 200" fill="none" xmlns="http://www.w3.org/2000/svg">
<g clip-path="url(#clip0_22_132)">
<path d="M200 -0.00402832H0V200.002H200V-0.00402832Z" fill="#A21942"/>
<path d="M38.86 47.218V42.818C38.86 38.954 37.494 36.158 34.34 34.73C37.014 33.424 38.266 31.044 38.266 27.714V26.046C38.266 19.742 34.996 16.352 28.75 16.352C22.566 16.352 19.35 19.752 19.35 26.046V27.714C19.35 30.986 20.55 33.424 23.15 34.73C19.998 36.158 18.688 38.954 18.688 42.818V47.218C18.688 53.342 21.604 57.618 28.742 57.618C35.942 57.618 38.852 53.334 38.852 47.218M25.706 25.618C25.706 23.176 26.542 21.75 28.742 21.75C31 21.75 31.834 23.176 31.834 25.618V28.352C31.834 30.79 31 32.222 28.742 32.222C26.542 32.222 25.706 30.79 25.706 28.352V25.618ZM32.08 47.93C32.08 50.37 31.188 52.094 28.75 52.094C26.37 52.094 25.478 50.37 25.478 47.93V41.388C25.478 38.95 26.37 37.224 28.75 37.224C31.188 37.224 32.08 38.95 32.08 41.388V47.93Z" fill="white"/>
<path d="M138.832 98.3999L118.504 117.734C117.738 118.496 117.344 119.058 117.344 120.638V174.838C117.345 175.145 117.468 175.439 117.685 175.656C117.903 175.872 118.197 175.994 118.504 175.994H139.504C139.811 175.994 140.105 175.872 140.322 175.655C140.539 175.439 140.661 175.145 140.662 174.838V98.8839C140.662 98.2439 140.162 97.0839 138.834 98.3959" fill="white"/>
<path d="M80.2678 123.6L59.9378 142.926C59.1738 143.69 58.7778 144.25 58.7778 145.828V174.828C58.7794 175.135 58.9023 175.428 59.1197 175.644C59.3371 175.861 59.6312 175.982 59.9378 175.982H80.9378C81.2443 175.982 81.5382 175.861 81.7552 175.644C81.9723 175.428 82.0948 175.134 82.0958 174.828V124.076C82.0958 123.434 81.5898 122.264 80.2678 123.59" fill="white"/>
<path d="M148.072 74.944C148.076 74.8626 148.063 74.7811 148.034 74.7052C148.004 74.6293 147.958 74.5607 147.9 74.5039C147.797 74.4069 147.665 74.3483 147.524 74.338H147.412H147.246L131.68 77.8659L131.398 77.896C131.284 77.9194 131.179 77.9741 131.094 78.0539C130.985 78.166 130.923 78.3164 130.923 78.4729C130.923 78.6295 130.985 78.7799 131.094 78.8919L131.27 79.068L134.826 82.6219L99.5539 117.894L83.2639 101.6C83.2207 101.556 83.169 101.521 83.112 101.496C83.055 101.472 82.9938 101.46 82.9319 101.46C82.87 101.46 82.8088 101.472 82.7518 101.496C82.6948 101.521 82.6431 101.556 82.5999 101.6L78.1799 106.022L52.0619 132.138C51.9754 132.227 51.927 132.346 51.927 132.47C51.927 132.594 51.9754 132.713 52.0619 132.802L56.4879 137.226C56.531 137.269 56.5823 137.304 56.6387 137.327C56.6952 137.351 56.7557 137.363 56.8169 137.363C56.878 137.363 56.9386 137.351 56.995 137.327C57.0515 137.304 57.1028 137.269 57.1459 137.226L82.9459 111.442L94.7659 123.266C94.7772 123.286 94.7899 123.304 94.8039 123.322L99.2259 127.738C99.2689 127.782 99.3204 127.817 99.3773 127.841C99.4341 127.865 99.4952 127.878 99.5569 127.878C99.6186 127.878 99.6797 127.865 99.7365 127.841C99.7934 127.817 99.8448 127.782 99.8879 127.738L139.91 87.708L143.642 91.438C143.696 91.493 143.761 91.5368 143.832 91.5667C143.903 91.5965 143.98 91.6119 144.057 91.6119C144.134 91.6119 144.211 91.5965 144.282 91.5667C144.353 91.5368 144.418 91.493 144.472 91.438C144.576 91.3368 144.637 91.1992 144.642 91.0539V91.0059L148.06 75.1159L148.072 74.944Z" fill="white"/>
<path d="M109.666 126.984L99.83 136.9C99.7404 136.976 99.6257 137.016 99.5083 137.011C99.391 137.007 99.2796 136.958 99.196 136.876L90.286 127.8C88.654 126.176 88.302 127.494 88.302 128.132V174.834C88.3017 174.986 88.3313 175.136 88.3891 175.276C88.4468 175.416 88.5316 175.543 88.6386 175.651C88.7456 175.758 88.8726 175.843 89.0125 175.901C89.1524 175.96 89.3025 175.99 89.454 175.99H110.454C110.76 175.989 111.053 175.867 111.27 175.65C111.486 175.433 111.607 175.14 111.608 174.834V127.35C111.608 126.712 111.106 125.538 109.662 126.984" fill="white"/>
<path d="M61.96 21.122V28.692C61.96 31.2 60.922 33.08 57.982 33.08H53.738V16.734H57.982C60.922 16.734 61.96 18.6 61.96 21.122ZM57.644 30.838C58.778 30.838 59.212 30.164 59.212 29.174V20.616C59.212 19.65 58.778 18.976 57.644 18.976H56.486V30.838H57.644Z" fill="white"/>
<path d="M63.696 16.734H70.254V18.976H66.454V23.654H69.178V25.872H66.444V30.838H70.244V33.08H63.696V16.734Z" fill="white"/>
<path d="M71.6521 28.862V20.952C71.6521 18.396 72.8521 16.54 75.7501 16.54C78.7881 16.54 79.6321 18.228 79.6321 20.64V22.568H77.1261V20.422C77.1261 19.41 76.7881 18.822 75.8001 18.822C74.8121 18.822 74.4001 19.522 74.4001 20.51V29.288C74.4001 30.276 74.8101 30.976 75.8001 30.976C76.7901 30.976 77.1261 30.348 77.1261 29.376V26.378H79.6321V29.2C79.6321 31.54 78.6681 33.276 75.7501 33.276C72.8321 33.276 71.6521 31.4 71.6521 28.862Z" fill="white"/>
<path d="M81.2961 16.734H87.8541V18.976H84.0541V23.654H86.7801V25.872H84.0441V30.838H87.8441V33.08H81.2961V16.734Z" fill="white"/>
<path d="M91.8001 22.81V33.08H89.4941V16.734H92.2001L95.1661 26.112V16.734H97.4561V33.08H95.0401L91.8001 22.81Z" fill="white"/>
<path d="M98.8721 16.734H106.178V18.976H103.912V33.08H101.138V18.976H98.8721V16.734Z" fill="white"/>
<path d="M116.256 22.978L114.714 33.08H112.134L109.934 16.734H112.6L113.878 27.102H113.902L115.276 16.734H117.518L119.036 27.102H119.06L120.314 16.734H122.63L120.5 33.08H117.9L116.284 22.978H116.256Z" fill="white"/>
<path d="M123.73 28.862V20.952C123.73 18.396 124.984 16.54 127.878 16.54C130.772 16.54 132.048 18.396 132.048 20.952V28.862C132.048 31.394 130.794 33.274 127.878 33.274C124.962 33.274 123.73 31.4 123.73 28.862ZM129.3 29.296V20.518C129.3 19.53 128.866 18.83 127.878 18.83C126.89 18.83 126.478 19.53 126.478 20.518V29.296C126.478 30.284 126.912 30.984 127.878 30.984C128.844 30.984 129.3 30.284 129.3 29.296Z" fill="white"/>
<path d="M136.532 25.582V33.08H133.784V16.734H137.784C140.558 16.734 141.57 18.108 141.57 20.398V22.496C141.57 24.256 140.944 25.296 139.37 25.654L142 33.08H139.112L136.532 25.582ZM136.532 18.982V24.07H137.448C138.39 24.07 138.8 23.586 138.8 22.718V20.318C138.8 19.426 138.4 18.992 137.448 18.992L136.532 18.982Z" fill="white"/>
<path d="M145.984 25.124V33.08H143.236V16.734H145.984V23.918L148.984 16.734H151.684L148.502 24.088L151.756 33.088H148.854L145.984 25.124Z" fill="white"/>
<path d="M155.58 33.08L158.666 16.734H161.8L164.912 33.08H162.09L161.584 30.092H158.666L158.184 33.08H155.58ZM159.028 27.896H161.228L160.144 21.338H160.118L159.028 27.896Z" fill="white"/>
<path d="M168.142 22.81V33.08H165.826V16.734H168.528L171.494 26.112V16.734H173.784V33.08H171.372L168.142 22.81Z" fill="white"/>
<path d="M183.814 21.122V28.692C183.814 31.2 182.776 33.08 179.834 33.08H175.6V16.734H179.842C182.776 16.734 183.814 18.6 183.814 21.122ZM179.498 30.838C180.63 30.838 181.064 30.164 181.064 29.174V20.616C181.064 19.65 180.63 18.976 179.498 18.976H178.34V30.838H179.498Z" fill="white"/>
<path d="M53.738 40.742H60.296V42.984H56.486V47.662H59.212V49.88H56.486V54.848H60.296V57.09H53.738V40.742Z" fill="white"/>
<path d="M61.502 52.87V44.962C61.502 42.406 62.702 40.55 65.6 40.55C68.638 40.55 69.482 42.236 69.482 44.648V46.578H66.9739V44.432C66.9739 43.418 66.6379 42.832 65.6479 42.832C64.6579 42.832 64.2479 43.53 64.2479 44.52V53.296C64.2479 54.284 64.6579 54.984 65.6479 54.984C66.6379 54.984 66.9739 54.358 66.9739 53.384V50.386H69.482V53.2C69.482 55.538 68.518 57.274 65.6 57.274C62.682 57.274 61.502 55.4 61.502 52.87Z" fill="white"/>
<path d="M70.9761 52.87V44.962C70.9761 42.406 72.2301 40.55 75.1241 40.55C78.0181 40.55 79.2961 42.406 79.2961 44.962V52.87C79.2961 55.402 78.0421 57.282 75.1241 57.282C72.2061 57.282 70.9761 55.4 70.9761 52.87ZM76.5461 53.304V44.528C76.5461 43.538 76.1121 42.84 75.1241 42.84C74.1361 42.84 73.7241 43.538 73.7241 44.528V53.304C73.7241 54.292 74.1581 54.992 75.1241 54.992C76.0901 54.992 76.5461 54.292 76.5461 53.304Z" fill="white"/>
<path d="M83.1761 46.818V57.09H80.8621V40.742H83.5621L86.5281 50.122V40.742H88.8181V57.09H86.4001L83.1761 46.818Z" fill="white"/>
<path d="M90.386 52.87V44.962C90.386 42.406 91.64 40.55 94.532 40.55C97.424 40.55 98.704 42.406 98.704 44.962V52.87C98.704 55.402 97.45 57.282 94.532 57.282C91.614 57.282 90.386 55.4 90.386 52.87ZM95.956 53.304V44.528C95.956 43.538 95.522 42.84 94.532 42.84C93.542 42.84 93.132 43.538 93.132 44.528V53.304C93.132 54.292 93.566 54.992 94.532 54.992C95.498 54.992 95.956 54.292 95.956 53.304Z" fill="white"/>
<path d="M107.842 46.48H107.77L105.912 57.08H104.634L102.586 46.48H102.536V57.08H100.27V40.742H103.47L105.254 49.942H105.278L106.878 40.742H110.352V57.09H107.842V46.48Z" fill="white"/>
<path d="M111.916 40.742H114.664V57.09H111.916V40.742Z" fill="white"/>
<path d="M116.2 52.87V44.962C116.2 42.406 117.4 40.55 120.298 40.55C123.336 40.55 124.18 42.236 124.18 44.648V46.578H121.68V44.432C121.68 43.418 121.342 42.832 120.354 42.832C119.366 42.832 118.954 43.53 118.954 44.52V53.296C118.954 54.284 119.364 54.984 120.354 54.984C121.344 54.984 121.68 54.358 121.68 53.384V50.386H124.188V53.2C124.188 55.538 123.224 57.274 120.306 57.274C117.388 57.274 116.2 55.4 116.2 52.87Z" fill="white"/>
<path d="M133.012 48.362H136.918V57.09H134.942V55.306C134.58 56.536 133.808 57.282 132.314 57.282C129.95 57.282 128.866 55.402 128.866 52.87V44.962C128.866 42.406 130.094 40.55 132.988 40.55C136.026 40.55 136.918 42.236 136.918 44.648V46.094H134.41V44.432C134.41 43.418 134.024 42.832 133.036 42.832C132.048 42.832 131.614 43.53 131.614 44.52V53.296C131.614 54.284 132.014 54.984 132.964 54.984C133.856 54.984 134.314 54.478 134.314 53.416V50.532H133.012V48.362Z" fill="white"/>
<path d="M141.234 49.6V57.098H138.484V40.742H142.484C145.256 40.742 146.27 42.116 146.27 44.406V46.504C146.27 48.264 145.642 49.304 144.07 49.664L146.7 57.09H143.814L141.234 49.6ZM141.234 43V48.088H142.15C143.09 48.088 143.5 47.606 143.5 46.738V44.31C143.5 43.418 143.1 42.984 142.15 42.984L141.234 43Z" fill="white"/>
<path d="M147.526 52.87V44.962C147.526 42.406 148.78 40.55 151.674 40.55C154.568 40.55 155.844 42.406 155.844 44.962V52.87C155.844 55.402 154.592 57.282 151.674 57.282C148.756 57.282 147.526 55.4 147.526 52.87ZM153.096 53.304V44.528C153.096 43.538 152.662 42.84 151.674 42.84C150.686 42.84 150.274 43.538 150.274 44.528V53.304C150.274 54.292 150.708 54.992 151.674 54.992C152.64 54.992 153.096 54.292 153.096 53.304Z" fill="white"/>
<path d="M162.884 46.986L161.342 57.09H158.762L156.562 40.742H159.22L160.498 51.11H160.522L161.896 40.742H164.138L165.658 51.11H165.682L166.936 40.742H169.25L167.128 57.09H164.528L162.912 46.986H162.884Z" fill="white"/>
<path d="M170.094 40.742H177.4V42.984H175.134V57.09H172.36V42.984H170.094V40.742Z" fill="white"/>
<path d="M183.644 49.88H181V57.08H178.242V40.742H181V47.662H183.652V40.742H186.424V57.09H183.644V49.88Z" fill="white"/>
</g>
<defs>
<clipPath id="clip0_22_132">
<rect width="200" height="200" fill="white"/>
</clipPath>
</defs>
</svg>
